<svg width="28" height="28" viewBox="0 0 28 28" fill="none" xmlns="http://www.w3.org/2000/svg">
<g id="Group">
<path id="Vector" d="M12.961 0.0382767C10.8884 0.235151 9.34619 0.672651 7.60166 1.55859C5.53447 2.61406 3.68057 4.27656 2.32432 6.28906C1.75557 7.14218 1.05557 8.58046 0.716504 9.59765C0.448535 10.418 0.229785 11.3531 0.0985352 12.2773C0.00556641 12.9226 0.00556641 15.0773 0.0985352 15.7226C0.328223 17.3359 0.754785 18.7469 1.42197 20.0977C2.17119 21.6289 2.90947 22.657 4.12354 23.8766C5.33213 25.0797 6.37666 25.8289 7.84775 26.5508C8.87588 27.0539 9.5376 27.3 10.5821 27.5625C13.3165 28.2516 16.0618 28.1203 18.7306 27.1742C19.5509 26.8844 20.9618 26.1734 21.6837 25.6922C23.3353 24.5875 24.8173 23.0672 25.8892 21.3828C26.2829 20.7648 26.9173 19.4523 27.1743 18.725C28.4595 15.1047 28.2353 11.2219 26.5454 7.82578C25.8673 6.45859 25.1071 5.38124 24.0407 4.28203C22.8704 3.06796 21.6892 2.20937 20.1524 1.44921C18.5337 0.650776 17.0243 0.218744 15.2306 0.0546818C14.6728 0.00546455 13.4095 -0.00547409 12.961 0.0382767ZM15.9415 1.90859C19.4087 2.49375 22.3454 4.40781 24.2704 7.34999C25.2001 8.76093 25.8345 10.4289 26.1243 12.2226C26.2556 13.0594 26.2556 14.9406 26.1243 15.7773C25.5337 19.4305 23.5321 22.4602 20.4259 24.418C19.097 25.2547 17.4892 25.8453 15.7774 26.1242C14.9353 26.2555 13.0595 26.2555 12.2228 26.1187C9.50478 25.6758 7.2626 24.5437 5.354 22.6406C3.46729 20.7648 2.31885 18.4953 1.87588 15.7773C1.74463 14.9406 1.74463 13.0594 1.87588 12.2226C2.4501 8.68437 4.32041 5.75312 7.25166 3.79531C8.9251 2.67421 10.9431 1.97421 13.0157 1.78281C13.6063 1.72812 15.3017 1.80468 15.9415 1.90859Z" fill="#FCD35A"/>
<path id="Vector_2" d="M13.6445 7.07656C13.4422 7.16953 13.2617 7.36094 13.1852 7.56328C13.1469 7.66719 13.125 8.64062 13.125 10.418V13.1195L10.3414 13.1359C7.62344 13.1523 7.55234 13.1578 7.40469 13.2672C7.11484 13.4805 7.02734 13.6555 7.02734 14C7.02734 14.3445 7.11484 14.5195 7.40469 14.7328C7.55234 14.8422 7.62344 14.8477 10.3359 14.8641L13.1195 14.8805L13.1359 17.6641C13.1523 20.3766 13.1578 20.4477 13.2672 20.5953C13.4805 20.8852 13.6555 20.9727 14 20.9727C14.3445 20.9727 14.5195 20.8852 14.7328 20.5953C14.8422 20.4477 14.8477 20.3766 14.8641 17.6641L14.8805 14.8805L17.6641 14.8641C20.3766 14.8477 20.4477 14.8422 20.5953 14.7328C20.8852 14.5195 20.9727 14.3445 20.9727 14C20.9727 13.6555 20.8852 13.4805 20.5953 13.2672C20.4477 13.1578 20.3766 13.1523 17.6641 13.1359L14.8805 13.1195L14.8641 10.3359C14.8477 7.62344 14.8422 7.55234 14.7328 7.40469C14.6727 7.32266 14.5578 7.20234 14.4812 7.14766C14.2953 7.01094 13.8633 6.97266 13.6445 7.07656Z" fill="#FCD35A"/>
</g>
</svg>
